<?xml version="1.0" encoding="UTF-8"?>
<svg version="1.1" viewBox="0 0 800.07 162.43" xmlns="http://www.w3.org/2000/svg">
<g transform="translate(-447.33 -259.04)">
<g transform="translate(17.832 -354.15)" fill="#f50a50">
<path d="m656.69 667.38c-25.12 0-44.16 19.2-44.16 44.48s17.6 44.32 40.96 44.32c12.64 0 23.52-5.6 30.88-14.56v5.92c0 4.64 3.52 8.16 8.16 8.16s8.16-3.52 8.16-8.16v-35.68c-0.16-25.28-19.04-44.48-44-44.48zm0 74.4c-16.16 0-28.48-12.8-28.48-29.92s12.32-30.08 28.48-30.08 28.32 12.96 28.32 30.08-12.16 29.92-28.32 29.92z"/>
<path d="m782.17 667.86c-4.8 0-8.16 3.36-8.16 8.16v45.12c0 11.68-10.4 20.48-24 20.48-14.56 0-25.44-8.16-25.44-26.24v-39.36c0-4.64-3.52-8.16-8.16-8.16s-8.16 3.52-8.16 8.16v39.36c0 26.56 16.64 40.96 38.56 40.96 10.88 0 20.48-4 27.2-10.72v1.76c0 4.8 3.36 8.16 8.16 8.16s8.16-3.36 8.16-8.16v-71.36c0-4.8-3.36-8.16-8.16-8.16z"/>
<path d="m870.53 743.22-25.44-30.4 24.16-31.52c4.32-5.6 2.4-13.28-4.64-13.28-2.4 0-4.32 0.64-5.92 2.72l-23.52 31.36-26.24-31.36c-1.6-1.92-3.68-2.72-6.08-2.72-7.2 0-8.96 7.52-4.64 12.64l26.4 31.2-24.8 31.04c-4.48 5.6-1.92 12.64 4.64 12.64 2.24 0 4.16-0.8 5.76-2.56l24.16-30.4 25.44 30.4c1.6 2.08 3.52 2.56 5.76 2.56 6.4 0 9.76-6.72 4.96-12.32z"/>
<path d="m917.93 756.18c11.68 0 21.28-3.68 28.8-10.72 3.04-2.88 2.56-7.04-1.12-10.08-2.72-2.24-6.72-1.92-10.08 0.8-4.64 3.84-10.24 5.6-17.6 5.6-16.96 0-28.48-12.64-28.48-29.92 0-18.08 11.2-30.08 27.68-30.08 8 0 14.08 2.56 19.52 8.32 2.88 3.04 6.88 3.84 9.92 1.76 3.84-2.72 4.8-6.72 1.92-10.08-8.32-9.6-18.72-14.4-31.36-14.4-25.28 0-43.36 18.56-43.36 44.48 0 25.28 18.4 44.32 44.16 44.32z"/>
<path d="m1031.6 667.86c-4.8 0-8.16 3.36-8.16 8.16v45.12c0 11.68-10.4 20.48-24 20.48-14.56 0-25.44-8.16-25.44-26.24v-39.36c0-4.64-3.52-8.16-8.16-8.16s-8.16 3.52-8.16 8.16v39.36c0 26.56 16.64 40.96 38.56 40.96 10.88 0 20.48-4 27.2-10.72v1.76c0 4.8 3.36 8.16 8.16 8.16s8.16-3.36 8.16-8.16v-71.36c0-4.8-3.36-8.16-8.16-8.16z"/>
<path d="m1100.7 667.38c-12.64 0-23.52 5.6-30.88 14.56v-43.2c0-4.8-3.36-8.16-8.16-8.16s-8.16 3.36-8.16 8.16v72.96c0.16 25.28 19.04 44.48 44 44.48 25.12 0 44.16-19.2 44.16-44.48s-17.6-44.32-40.96-44.32zm-3.2 74.4c-16.16 0-28.32-12.96-28.32-30.08s12.16-29.92 28.32-29.92 28.48 12.8 28.48 29.92-12.32 30.08-28.48 30.08z"/>
<path d="m1229.6 710.42c0-25.28-14.88-43.04-39.84-43.04-25.28 0-43.2 18.4-43.2 44.48 0 25.92 18.88 44.32 45.6 44.32 9.76 0 21.76-4 28.96-9.76 3.52-2.72 3.36-7.04-0.32-10.24-2.72-2.24-6.88-2.24-10.08 0.16-4.32 3.2-12 6.08-18.56 6.08-16.32 0-28.32-10.24-30.72-24.96h60.8c4.32 0 7.36-2.88 7.36-7.04zm-39.84-29.28c14.4 0 23.2 9.76 25.12 23.52h-53.28c2.4-13.92 12.32-23.52 28.16-23.52z"/>
</g>
<g transform="rotate(45 418.4 228.73)" stroke-linecap="round" stroke-width="7.9425">
<g fill="#9e9e9e">
<rect transform="rotate(89.584)" x="164.36" y="-618.68" width="39.712" height="39.712" style="paint-order:markers stroke fill">
<animate attributeName="x" dur="0.5s" repeatCount="0" values="214.35583;164.35715"/>
<animate attributeName="y" dur="0.5s" repeatCount="0" values="-618.31384;-618.67731"/>
</rect>
<rect transform="rotate(89.584)" x="214.36" y="-618.31" width="39.712" height="39.712" style="paint-order:markers stroke fill"/>
<rect transform="rotate(89.584)" x="214.86" y="-668.17" width="39.712" height="39.712" style="paint-order:markers stroke fill">
<animate attributeName="x" dur="0.5s" repeatCount="0" values="214.35583;214.86256"/>
<animate attributeName="y" dur="0.5s" repeatCount="0" values="-618.31384;-668.16718"/>
</rect>
</g>
<g fill="#f50a50">
<rect transform="rotate(89.584)" x="213.48" y="-518.17" width="39.712" height="39.712" style="paint-order:markers stroke fill">
<animate attributeName="x" dur="0.5s" repeatCount="0" values="214.35583;213.48354"/>
<animate attributeName="y" dur="0.5s" repeatCount="0" values="-618.31384;-518.17322"/>
</rect>
<rect transform="rotate(89.584)" x="213.99" y="-568.32" width="39.712" height="39.712" style="paint-order:markers stroke fill">
<animate attributeName="x" dur="0.5s" repeatCount="0" values="214.35583;213.99237"/>
<animate attributeName="y" dur="0.5s" repeatCount="0" values="-618.31384;-568.31519"/>
</rect>
<rect transform="rotate(89.584)" x="263.99" y="-567.95" width="39.712" height="39.712" style="paint-order:markers stroke fill">
<animate attributeName="x" dur="0.5s" repeatCount="0" values="214.35583;263.99106"/>
<animate attributeName="y" dur="0.5s" repeatCount="0" values="-618.31384;-567.95172"/>
</rect>
</g>
</g>
</g>
</svg>
